{
	"asset":{
		"generator":"Khronos glTF Blender I/O v5.2.40",
		"version":"2.0"
	},
	"scene":0,
	"scenes":[
		{
			"name":"Scene",
			"nodes":[
				0
			]
		}
	],
	"nodes":[
		{
			"mesh":0,
			"name":"industrial_caged_sconce_c"
		}
	],
	"materials":[
		{
			"doubleSided":true,
			"name":"import",
			"pbrMetallicRoughness":{
				"baseColorFactor":[
					0.800000011920929,
					0.800000011920929,
					0.800000011920929,
					1
				],
				"metallicFactor":0,
				"roughnessFactor":0.5
			}
		}
	],
	"meshes":[
		{
			"name":"Circle.008",
			"primitives":[
				{
					"attributes":{
						"POSITION":0,
						"NORMAL":1,
						"TEXCOORD_0":2
					},
					"indices":3,
					"material":0
				}
			]
		}
	],
	"accessors":[
		{
			"bufferView":0,
			"componentType":5126,
			"count":3961,
			"max":[
				0.2822794020175934,
				0.2793770134449005,
				0.3290107548236847
			],
			"min":[
				-0.2794713079929352,
				-0.10671190172433853,
				-6.737762305419892e-05
			],
			"type":"VEC3"
		},
		{
			"bufferView":1,
			"componentType":5126,
			"count":3961,
			"type":"VEC3"
		},
		{
			"bufferView":2,
			"componentType":5126,
			"count":3961,
			"type":"VEC2"
		},
		{
			"bufferView":3,
			"componentType":5123,
			"count":9600,
			"type":"SCALAR"
		}
	],
	"bufferViews":[
		{
			"buffer":0,
			"byteLength":47532,
			"byteOffset":0,
			"target":34962
		},
		{
			"buffer":0,
			"byteLength":47532,
			"byteOffset":47532,
			"target":34962
		},
		{
			"buffer":0,
			"byteLength":31688,
			"byteOffset":95064,
			"target":34962
		},
		{
			"buffer":0,
			"byteLength":19200,
			"byteOffset":126752,
			"target":34963
		}
	],
	"buffers":[
		{
			"byteLength":145952,
			"uri":"industrial_caged_sconce.bin"
		}
	]
}
