{
	"asset":{
		"generator":"Khronos glTF Blender I/O v5.2.40",
		"version":"2.0"
	},
	"scene":0,
	"scenes":[
		{
			"name":"Scene",
			"nodes":[
				0
			]
		}
	],
	"nodes":[
		{
			"mesh":0,
			"name":"ArmChair_01"
		}
	],
	"materials":[
		{
			"doubleSided":true,
			"name":"import",
			"pbrMetallicRoughness":{
				"baseColorFactor":[
					0.800000011920929,
					0.800000011920929,
					0.800000011920929,
					1
				],
				"metallicFactor":0,
				"roughnessFactor":0.5
			}
		}
	],
	"meshes":[
		{
			"name":"Cylinder.001",
			"primitives":[
				{
					"attributes":{
						"POSITION":0,
						"NORMAL":1,
						"TEXCOORD_0":2
					},
					"indices":3,
					"material":0
				}
			]
		}
	],
	"accessors":[
		{
			"bufferView":0,
			"componentType":5126,
			"count":1873,
			"max":[
				0.4248918294906616,
				1.065368413925171,
				0.34977829456329346
			],
			"min":[
				-0.42489176988601685,
				1.269551103177946e-05,
				-0.41541916131973267
			],
			"type":"VEC3"
		},
		{
			"bufferView":1,
			"componentType":5126,
			"count":1873,
			"type":"VEC3"
		},
		{
			"bufferView":2,
			"componentType":5126,
			"count":1873,
			"type":"VEC2"
		},
		{
			"bufferView":3,
			"componentType":5123,
			"count":6597,
			"type":"SCALAR"
		}
	],
	"bufferViews":[
		{
			"buffer":0,
			"byteLength":22476,
			"byteOffset":0,
			"target":34962
		},
		{
			"buffer":0,
			"byteLength":22476,
			"byteOffset":22476,
			"target":34962
		},
		{
			"buffer":0,
			"byteLength":14984,
			"byteOffset":44952,
			"target":34962
		},
		{
			"buffer":0,
			"byteLength":13194,
			"byteOffset":59936,
			"target":34963
		}
	],
	"buffers":[
		{
			"byteLength":73132,
			"uri":"ArmChair_01.bin"
		}
	]
}
