{
	"asset":{
		"generator":"Khronos glTF Blender I/O v5.2.40",
		"version":"2.0"
	},
	"scene":0,
	"scenes":[
		{
			"name":"Scene",
			"nodes":[
				0
			]
		}
	],
	"nodes":[
		{
			"mesh":0,
			"name":"caged_hanging_light"
		}
	],
	"materials":[
		{
			"doubleSided":true,
			"name":"import",
			"pbrMetallicRoughness":{
				"baseColorFactor":[
					0.800000011920929,
					0.800000011920929,
					0.800000011920929,
					1
				],
				"metallicFactor":0,
				"roughnessFactor":0.5
			}
		}
	],
	"meshes":[
		{
			"name":"Plane.019",
			"primitives":[
				{
					"attributes":{
						"POSITION":0,
						"NORMAL":1,
						"TEXCOORD_0":2
					},
					"indices":3,
					"material":0
				}
			]
		}
	],
	"accessors":[
		{
			"bufferView":0,
			"componentType":5126,
			"count":4854,
			"max":[
				0.24540798366069794,
				2.5386080793055044e-08,
				0.06606782227754593
			],
			"min":[
				-0.24488617479801178,
				-0.31503191590309143,
				-0.06608731299638748
			],
			"type":"VEC3"
		},
		{
			"bufferView":1,
			"componentType":5126,
			"count":4854,
			"type":"VEC3"
		},
		{
			"bufferView":2,
			"componentType":5126,
			"count":4854,
			"type":"VEC2"
		},
		{
			"bufferView":3,
			"componentType":5123,
			"count":9597,
			"type":"SCALAR"
		}
	],
	"bufferViews":[
		{
			"buffer":0,
			"byteLength":58248,
			"byteOffset":0,
			"target":34962
		},
		{
			"buffer":0,
			"byteLength":58248,
			"byteOffset":58248,
			"target":34962
		},
		{
			"buffer":0,
			"byteLength":38832,
			"byteOffset":116496,
			"target":34962
		},
		{
			"buffer":0,
			"byteLength":19194,
			"byteOffset":155328,
			"target":34963
		}
	],
	"buffers":[
		{
			"byteLength":174524,
			"uri":"caged_hanging_light.bin"
		}
	]
}
