{
	"asset":{
		"generator":"Khronos glTF Blender I/O v5.2.40",
		"version":"2.0"
	},
	"scene":0,
	"scenes":[
		{
			"name":"Scene",
			"nodes":[
				0
			]
		}
	],
	"nodes":[
		{
			"mesh":0,
			"name":"CoffeeTable_01"
		}
	],
	"materials":[
		{
			"doubleSided":true,
			"name":"import",
			"pbrMetallicRoughness":{
				"baseColorFactor":[
					0.800000011920929,
					0.800000011920929,
					0.800000011920929,
					1
				],
				"metallicFactor":0,
				"roughnessFactor":0.5
			}
		}
	],
	"meshes":[
		{
			"name":"Mesh",
			"primitives":[
				{
					"attributes":{
						"POSITION":0,
						"NORMAL":1,
						"TEXCOORD_0":2,
						"COLOR_0":3,
						"COLOR_1":4,
						"COLOR_2":5
					},
					"indices":6,
					"material":0
				}
			]
		}
	],
	"accessors":[
		{
			"bufferView":0,
			"componentType":5126,
			"count":1494,
			"max":[
				0.771611213684082,
				0.5232490301132202,
				0.4846251308917999
			],
			"min":[
				-0.7716071009635925,
				0.0013300359714776278,
				-0.4880271255970001
			],
			"type":"VEC3"
		},
		{
			"bufferView":1,
			"componentType":5126,
			"count":1494,
			"type":"VEC3"
		},
		{
			"bufferView":2,
			"componentType":5126,
			"count":1494,
			"type":"VEC2"
		},
		{
			"bufferView":3,
			"componentType":5121,
			"count":1494,
			"normalized":true,
			"type":"VEC4"
		},
		{
			"bufferView":4,
			"componentType":5123,
			"count":1494,
			"normalized":true,
			"type":"VEC4"
		},
		{
			"bufferView":5,
			"componentType":5123,
			"count":1494,
			"normalized":true,
			"type":"VEC4"
		},
		{
			"bufferView":6,
			"componentType":5123,
			"count":4197,
			"type":"SCALAR"
		}
	],
	"bufferViews":[
		{
			"buffer":0,
			"byteLength":17928,
			"byteOffset":0,
			"target":34962
		},
		{
			"buffer":0,
			"byteLength":17928,
			"byteOffset":17928,
			"target":34962
		},
		{
			"buffer":0,
			"byteLength":11952,
			"byteOffset":35856,
			"target":34962
		},
		{
			"buffer":0,
			"byteLength":5976,
			"byteOffset":47808,
			"target":34962
		},
		{
			"buffer":0,
			"byteLength":11952,
			"byteOffset":53784,
			"target":34962
		},
		{
			"buffer":0,
			"byteLength":11952,
			"byteOffset":65736,
			"target":34962
		},
		{
			"buffer":0,
			"byteLength":8394,
			"byteOffset":77688,
			"target":34963
		}
	],
	"buffers":[
		{
			"byteLength":86084,
			"uri":"CoffeeTable_01.bin"
		}
	]
}
