{
	"asset":{
		"generator":"Khronos glTF Blender I/O v5.2.40",
		"version":"2.0"
	},
	"scene":0,
	"scenes":[
		{
			"name":"Scene",
			"nodes":[
				0
			]
		}
	],
	"nodes":[
		{
			"mesh":0,
			"name":"boombox"
		}
	],
	"materials":[
		{
			"doubleSided":true,
			"name":"import",
			"pbrMetallicRoughness":{
				"baseColorFactor":[
					0.800000011920929,
					0.800000011920929,
					0.800000011920929,
					1
				],
				"metallicFactor":0,
				"roughnessFactor":0.5
			}
		}
	],
	"meshes":[
		{
			"name":"Plane.095",
			"primitives":[
				{
					"attributes":{
						"POSITION":0,
						"NORMAL":1,
						"TEXCOORD_0":2
					},
					"indices":3,
					"material":0
				}
			]
		}
	],
	"accessors":[
		{
			"bufferView":0,
			"componentType":5126,
			"count":1580,
			"max":[
				0.3613085448741913,
				0.4061237573623657,
				0.11312616616487503
			],
			"min":[
				-0.3618898093700409,
				0,
				-0.07333849370479584
			],
			"type":"VEC3"
		},
		{
			"bufferView":1,
			"componentType":5126,
			"count":1580,
			"type":"VEC3"
		},
		{
			"bufferView":2,
			"componentType":5126,
			"count":1580,
			"type":"VEC2"
		},
		{
			"bufferView":3,
			"componentType":5123,
			"count":3300,
			"type":"SCALAR"
		}
	],
	"bufferViews":[
		{
			"buffer":0,
			"byteLength":18960,
			"byteOffset":0,
			"target":34962
		},
		{
			"buffer":0,
			"byteLength":18960,
			"byteOffset":18960,
			"target":34962
		},
		{
			"buffer":0,
			"byteLength":12640,
			"byteOffset":37920,
			"target":34962
		},
		{
			"buffer":0,
			"byteLength":6600,
			"byteOffset":50560,
			"target":34963
		}
	],
	"buffers":[
		{
			"byteLength":57160,
			"uri":"boombox.bin"
		}
	]
}
