{
	"asset":{
		"generator":"Khronos glTF Blender I/O v5.2.40",
		"version":"2.0"
	},
	"scene":0,
	"scenes":[
		{
			"name":"Scene",
			"nodes":[
				0
			]
		}
	],
	"nodes":[
		{
			"mesh":0,
			"name":"plateau_repas"
		}
	],
	"materials":[
		{
			"doubleSided":true,
			"name":"plateau",
			"pbrMetallicRoughness":{
				"baseColorFactor":[
					0.800000011920929,
					0.800000011920929,
					0.800000011920929,
					1
				],
				"metallicFactor":0,
				"roughnessFactor":0.5
			}
		},
		{
			"doubleSided":true,
			"name":"pain",
			"pbrMetallicRoughness":{
				"baseColorFactor":[
					0.800000011920929,
					0.800000011920929,
					0.800000011920929,
					1
				],
				"metallicFactor":0,
				"roughnessFactor":0.5
			}
		},
		{
			"doubleSided":true,
			"name":"salade",
			"pbrMetallicRoughness":{
				"baseColorFactor":[
					0.800000011920929,
					0.800000011920929,
					0.800000011920929,
					1
				],
				"metallicFactor":0,
				"roughnessFactor":0.5
			}
		},
		{
			"doubleSided":true,
			"name":"viande",
			"pbrMetallicRoughness":{
				"baseColorFactor":[
					0.800000011920929,
					0.800000011920929,
					0.800000011920929,
					1
				],
				"metallicFactor":0,
				"roughnessFactor":0.5
			}
		},
		{
			"doubleSided":true,
			"name":"carton",
			"pbrMetallicRoughness":{
				"baseColorFactor":[
					0.800000011920929,
					0.800000011920929,
					0.800000011920929,
					1
				],
				"metallicFactor":0,
				"roughnessFactor":0.5
			}
		},
		{
			"doubleSided":true,
			"name":"frite",
			"pbrMetallicRoughness":{
				"baseColorFactor":[
					0.800000011920929,
					0.800000011920929,
					0.800000011920929,
					1
				],
				"metallicFactor":0,
				"roughnessFactor":0.5
			}
		},
		{
			"doubleSided":true,
			"name":"gobelet",
			"pbrMetallicRoughness":{
				"baseColorFactor":[
					0.800000011920929,
					0.800000011920929,
					0.800000011920929,
					1
				],
				"metallicFactor":0,
				"roughnessFactor":0.5
			}
		},
		{
			"doubleSided":true,
			"name":"couvercle",
			"pbrMetallicRoughness":{
				"baseColorFactor":[
					0.800000011920929,
					0.800000011920929,
					0.800000011920929,
					1
				],
				"metallicFactor":0,
				"roughnessFactor":0.5
			}
		},
		{
			"doubleSided":true,
			"name":"paille",
			"pbrMetallicRoughness":{
				"baseColorFactor":[
					0.800000011920929,
					0.800000011920929,
					0.800000011920929,
					1
				],
				"metallicFactor":0,
				"roughnessFactor":0.5
			}
		}
	],
	"meshes":[
		{
			"name":"plateau_repas",
			"primitives":[
				{
					"attributes":{
						"POSITION":0,
						"NORMAL":1,
						"TEXCOORD_0":2
					},
					"indices":3,
					"material":0
				},
				{
					"attributes":{
						"POSITION":4,
						"NORMAL":5,
						"TEXCOORD_0":6
					},
					"indices":7,
					"material":1
				},
				{
					"attributes":{
						"POSITION":8,
						"NORMAL":9,
						"TEXCOORD_0":10
					},
					"indices":11,
					"material":2
				},
				{
					"attributes":{
						"POSITION":12,
						"NORMAL":13,
						"TEXCOORD_0":14
					},
					"indices":15,
					"material":3
				},
				{
					"attributes":{
						"POSITION":16,
						"NORMAL":17,
						"TEXCOORD_0":18
					},
					"indices":19,
					"material":4
				},
				{
					"attributes":{
						"POSITION":20,
						"NORMAL":21,
						"TEXCOORD_0":22
					},
					"indices":23,
					"material":5
				},
				{
					"attributes":{
						"POSITION":24,
						"NORMAL":25,
						"TEXCOORD_0":26
					},
					"indices":27,
					"material":6
				},
				{
					"attributes":{
						"POSITION":28,
						"NORMAL":29,
						"TEXCOORD_0":30
					},
					"indices":31,
					"material":7
				},
				{
					"attributes":{
						"POSITION":32,
						"NORMAL":33,
						"TEXCOORD_0":34
					},
					"indices":35,
					"material":8
				}
			]
		}
	],
	"accessors":[
		{
			"bufferView":0,
			"componentType":5126,
			"count":120,
			"max":[
				0.18000000715255737,
				0.026000000536441803,
				0.1300000101327896
			],
			"min":[
				-0.18000000715255737,
				0,
				-0.1300000101327896
			],
			"type":"VEC3"
		},
		{
			"bufferView":1,
			"componentType":5126,
			"count":120,
			"type":"VEC3"
		},
		{
			"bufferView":2,
			"componentType":5126,
			"count":120,
			"type":"VEC2"
		},
		{
			"bufferView":3,
			"componentType":5123,
			"count":180,
			"type":"SCALAR"
		},
		{
			"bufferView":4,
			"componentType":5126,
			"count":580,
			"max":[
				-0.03800000995397568,
				0.08083999902009964,
				0.036999985575675964
			],
			"min":[
				-0.13199998438358307,
				0.006000000052154064,
				-0.056999996304512024
			],
			"type":"VEC3"
		},
		{
			"bufferView":5,
			"componentType":5126,
			"count":580,
			"type":"VEC3"
		},
		{
			"bufferView":6,
			"componentType":5126,
			"count":580,
			"type":"VEC2"
		},
		{
			"bufferView":7,
			"componentType":5123,
			"count":852,
			"type":"SCALAR"
		},
		{
			"bufferView":8,
			"componentType":5126,
			"count":96,
			"max":[
				-0.03500000014901161,
				0.030000001192092896,
				0.03999999910593033
			],
			"min":[
				-0.13500000536441803,
				0.024000000208616257,
				-0.06000000238418579
			],
			"type":"VEC3"
		},
		{
			"bufferView":9,
			"componentType":5126,
			"count":96,
			"type":"VEC3"
		},
		{
			"bufferView":10,
			"componentType":5126,
			"count":96,
			"type":"VEC2"
		},
		{
			"bufferView":11,
			"componentType":5123,
			"count":180,
			"type":"SCALAR"
		},
		{
			"bufferView":12,
			"componentType":5126,
			"count":96,
			"max":[
				-0.03800000250339508,
				0.04450000077486038,
				0.03700000047683716
			],
			"min":[
				-0.13199999928474426,
				0.029500000178813934,
				-0.056999996304512024
			],
			"type":"VEC3"
		},
		{
			"bufferView":13,
			"componentType":5126,
			"count":96,
			"type":"VEC3"
		},
		{
			"bufferView":14,
			"componentType":5126,
			"count":96,
			"type":"VEC2"
		},
		{
			"bufferView":15,
			"componentType":5123,
			"count":180,
			"type":"SCALAR"
		},
		{
			"bufferView":16,
			"componentType":5126,
			"count":24,
			"max":[
				0.06889087706804276,
				0.09600000083446503,
				0.09389087557792664
			],
			"min":[
				-0.008890876546502113,
				0.00599999725818634,
				0.016109123826026917
			],
			"type":"VEC3"
		},
		{
			"bufferView":17,
			"componentType":5126,
			"count":24,
			"type":"VEC3"
		},
		{
			"bufferView":18,
			"componentType":5126,
			"count":24,
			"type":"VEC2"
		},
		{
			"bufferView":19,
			"componentType":5123,
			"count":36,
			"type":"SCALAR"
		},
		{
			"bufferView":20,
			"componentType":5126,
			"count":144,
			"max":[
				0.04433133825659752,
				0.16407647728919983,
				0.07965101301670074
			],
			"min":[
				0.005013731773942709,
				0.08399999886751175,
				0.034274615347385406
			],
			"type":"VEC3"
		},
		{
			"bufferView":21,
			"componentType":5126,
			"count":144,
			"type":"VEC3"
		},
		{
			"bufferView":22,
			"componentType":5126,
			"count":144,
			"type":"VEC2"
		},
		{
			"bufferView":23,
			"componentType":5123,
			"count":216,
			"type":"SCALAR"
		},
		{
			"bufferView":24,
			"componentType":5126,
			"count":96,
			"max":[
				0.16200000047683716,
				0.13600000739097595,
				0.012000000104308128
			],
			"min":[
				0.07799999415874481,
				0.006000004708766937,
				-0.07199999690055847
			],
			"type":"VEC3"
		},
		{
			"bufferView":25,
			"componentType":5126,
			"count":96,
			"type":"VEC3"
		},
		{
			"bufferView":26,
			"componentType":5126,
			"count":96,
			"type":"VEC2"
		},
		{
			"bufferView":27,
			"componentType":5123,
			"count":180,
			"type":"SCALAR"
		},
		{
			"bufferView":28,
			"componentType":5126,
			"count":96,
			"max":[
				0.164000004529953,
				0.1459999978542328,
				0.014000000432133675
			],
			"min":[
				0.07599999755620956,
				0.13600000739097595,
				-0.07400000095367432
			],
			"type":"VEC3"
		},
		{
			"bufferView":29,
			"componentType":5126,
			"count":96,
			"type":"VEC3"
		},
		{
			"bufferView":30,
			"componentType":5126,
			"count":96,
			"type":"VEC2"
		},
		{
			"bufferView":31,
			"componentType":5123,
			"count":180,
			"type":"SCALAR"
		},
		{
			"bufferView":32,
			"componentType":5126,
			"count":50,
			"max":[
				0.1443081796169281,
				0.2347390353679657,
				-0.025999998673796654
			],
			"min":[
				0.11569181829690933,
				0.13526096940040588,
				-0.03399999812245369
			],
			"type":"VEC3"
		},
		{
			"bufferView":33,
			"componentType":5126,
			"count":50,
			"type":"VEC3"
		},
		{
			"bufferView":34,
			"componentType":5126,
			"count":50,
			"type":"VEC2"
		},
		{
			"bufferView":35,
			"componentType":5123,
			"count":84,
			"type":"SCALAR"
		}
	],
	"bufferViews":[
		{
			"buffer":0,
			"byteLength":1440,
			"byteOffset":0,
			"target":34962
		},
		{
			"buffer":0,
			"byteLength":1440,
			"byteOffset":1440,
			"target":34962
		},
		{
			"buffer":0,
			"byteLength":960,
			"byteOffset":2880,
			"target":34962
		},
		{
			"buffer":0,
			"byteLength":360,
			"byteOffset":3840,
			"target":34963
		},
		{
			"buffer":0,
			"byteLength":6960,
			"byteOffset":4200,
			"target":34962
		},
		{
			"buffer":0,
			"byteLength":6960,
			"byteOffset":11160,
			"target":34962
		},
		{
			"buffer":0,
			"byteLength":4640,
			"byteOffset":18120,
			"target":34962
		},
		{
			"buffer":0,
			"byteLength":1704,
			"byteOffset":22760,
			"target":34963
		},
		{
			"buffer":0,
			"byteLength":1152,
			"byteOffset":24464,
			"target":34962
		},
		{
			"buffer":0,
			"byteLength":1152,
			"byteOffset":25616,
			"target":34962
		},
		{
			"buffer":0,
			"byteLength":768,
			"byteOffset":26768,
			"target":34962
		},
		{
			"buffer":0,
			"byteLength":360,
			"byteOffset":27536,
			"target":34963
		},
		{
			"buffer":0,
			"byteLength":1152,
			"byteOffset":27896,
			"target":34962
		},
		{
			"buffer":0,
			"byteLength":1152,
			"byteOffset":29048,
			"target":34962
		},
		{
			"buffer":0,
			"byteLength":768,
			"byteOffset":30200,
			"target":34962
		},
		{
			"buffer":0,
			"byteLength":360,
			"byteOffset":30968,
			"target":34963
		},
		{
			"buffer":0,
			"byteLength":288,
			"byteOffset":31328,
			"target":34962
		},
		{
			"buffer":0,
			"byteLength":288,
			"byteOffset":31616,
			"target":34962
		},
		{
			"buffer":0,
			"byteLength":192,
			"byteOffset":31904,
			"target":34962
		},
		{
			"buffer":0,
			"byteLength":72,
			"byteOffset":32096,
			"target":34963
		},
		{
			"buffer":0,
			"byteLength":1728,
			"byteOffset":32168,
			"target":34962
		},
		{
			"buffer":0,
			"byteLength":1728,
			"byteOffset":33896,
			"target":34962
		},
		{
			"buffer":0,
			"byteLength":1152,
			"byteOffset":35624,
			"target":34962
		},
		{
			"buffer":0,
			"byteLength":432,
			"byteOffset":36776,
			"target":34963
		},
		{
			"buffer":0,
			"byteLength":1152,
			"byteOffset":37208,
			"target":34962
		},
		{
			"buffer":0,
			"byteLength":1152,
			"byteOffset":38360,
			"target":34962
		},
		{
			"buffer":0,
			"byteLength":768,
			"byteOffset":39512,
			"target":34962
		},
		{
			"buffer":0,
			"byteLength":360,
			"byteOffset":40280,
			"target":34963
		},
		{
			"buffer":0,
			"byteLength":1152,
			"byteOffset":40640,
			"target":34962
		},
		{
			"buffer":0,
			"byteLength":1152,
			"byteOffset":41792,
			"target":34962
		},
		{
			"buffer":0,
			"byteLength":768,
			"byteOffset":42944,
			"target":34962
		},
		{
			"buffer":0,
			"byteLength":360,
			"byteOffset":43712,
			"target":34963
		},
		{
			"buffer":0,
			"byteLength":600,
			"byteOffset":44072,
			"target":34962
		},
		{
			"buffer":0,
			"byteLength":600,
			"byteOffset":44672,
			"target":34962
		},
		{
			"buffer":0,
			"byteLength":400,
			"byteOffset":45272,
			"target":34962
		},
		{
			"buffer":0,
			"byteLength":168,
			"byteOffset":45672,
			"target":34963
		}
	],
	"buffers":[
		{
			"byteLength":45840,
			"uri":"plateau_repas.bin"
		}
	]
}
