{
	"asset":{
		"generator":"Khronos glTF Blender I/O v5.2.40",
		"version":"2.0"
	},
	"scene":0,
	"scenes":[
		{
			"name":"Scene",
			"nodes":[
				0
			]
		}
	],
	"nodes":[
		{
			"mesh":0,
			"name":"dartboard"
		}
	],
	"materials":[
		{
			"doubleSided":true,
			"name":"import",
			"pbrMetallicRoughness":{
				"baseColorFactor":[
					0.800000011920929,
					0.800000011920929,
					0.800000011920929,
					1
				],
				"metallicFactor":0,
				"roughnessFactor":0.5
			}
		}
	],
	"meshes":[
		{
			"name":"Circle.002",
			"primitives":[
				{
					"attributes":{
						"POSITION":0,
						"NORMAL":1,
						"TEXCOORD_0":2
					},
					"indices":3,
					"material":0
				}
			]
		}
	],
	"accessors":[
		{
			"bufferView":0,
			"componentType":5126,
			"count":1379,
			"max":[
				0.22545182704925537,
				0.22545184195041656,
				0.039905186742544174
			],
			"min":[
				-0.22545187175273895,
				-0.22539666295051575,
				-5.8707594341456115e-09
			],
			"type":"VEC3"
		},
		{
			"bufferView":1,
			"componentType":5126,
			"count":1379,
			"type":"VEC3"
		},
		{
			"bufferView":2,
			"componentType":5126,
			"count":1379,
			"type":"VEC2"
		},
		{
			"bufferView":3,
			"componentType":5123,
			"count":4200,
			"type":"SCALAR"
		}
	],
	"bufferViews":[
		{
			"buffer":0,
			"byteLength":16548,
			"byteOffset":0,
			"target":34962
		},
		{
			"buffer":0,
			"byteLength":16548,
			"byteOffset":16548,
			"target":34962
		},
		{
			"buffer":0,
			"byteLength":11032,
			"byteOffset":33096,
			"target":34962
		},
		{
			"buffer":0,
			"byteLength":8400,
			"byteOffset":44128,
			"target":34963
		}
	],
	"buffers":[
		{
			"byteLength":52528,
			"uri":"dartboard.bin"
		}
	]
}
