{
	"asset":{
		"generator":"Khronos glTF Blender I/O v5.2.40",
		"version":"2.0"
	},
	"scene":0,
	"scenes":[
		{
			"name":"Scene",
			"nodes":[
				0
			]
		}
	],
	"nodes":[
		{
			"mesh":0,
			"name":"WetFloorSign_01"
		}
	],
	"materials":[
		{
			"doubleSided":true,
			"name":"import",
			"pbrMetallicRoughness":{
				"baseColorFactor":[
					0.800000011920929,
					0.800000011920929,
					0.800000011920929,
					1
				],
				"metallicFactor":0,
				"roughnessFactor":0.5
			}
		}
	],
	"meshes":[
		{
			"name":"Mesh",
			"primitives":[
				{
					"attributes":{
						"POSITION":0,
						"NORMAL":1,
						"TEXCOORD_0":2
					},
					"indices":3,
					"material":0
				}
			]
		}
	],
	"accessors":[
		{
			"bufferView":0,
			"componentType":5126,
			"count":254,
			"max":[
				0.15002740919589996,
				0.6317126154899597,
				0.16525021195411682
			],
			"min":[
				-0.15002743899822235,
				0.002168611390516162,
				-0.1932590901851654
			],
			"type":"VEC3"
		},
		{
			"bufferView":1,
			"componentType":5126,
			"count":254,
			"type":"VEC3"
		},
		{
			"bufferView":2,
			"componentType":5126,
			"count":254,
			"type":"VEC2"
		},
		{
			"bufferView":3,
			"componentType":5123,
			"count":684,
			"type":"SCALAR"
		}
	],
	"bufferViews":[
		{
			"buffer":0,
			"byteLength":3048,
			"byteOffset":0,
			"target":34962
		},
		{
			"buffer":0,
			"byteLength":3048,
			"byteOffset":3048,
			"target":34962
		},
		{
			"buffer":0,
			"byteLength":2032,
			"byteOffset":6096,
			"target":34962
		},
		{
			"buffer":0,
			"byteLength":1368,
			"byteOffset":8128,
			"target":34963
		}
	],
	"buffers":[
		{
			"byteLength":9496,
			"uri":"WetFloorSign_01.bin"
		}
	]
}
