{
	"asset":{
		"generator":"Khronos glTF Blender I/O v5.2.40",
		"version":"2.0"
	},
	"scene":0,
	"scenes":[
		{
			"name":"Scene",
			"nodes":[
				0
			]
		}
	],
	"nodes":[
		{
			"mesh":0,
			"name":"borne"
		}
	],
	"materials":[
		{
			"doubleSided":true,
			"name":"caisson",
			"pbrMetallicRoughness":{
				"baseColorFactor":[
					0.800000011920929,
					0.800000011920929,
					0.800000011920929,
					1
				],
				"metallicFactor":0,
				"roughnessFactor":0.5
			}
		},
		{
			"doubleSided":true,
			"name":"flanc",
			"pbrMetallicRoughness":{
				"baseColorFactor":[
					0.800000011920929,
					0.800000011920929,
					0.800000011920929,
					1
				],
				"metallicFactor":0,
				"roughnessFactor":0.5
			}
		},
		{
			"doubleSided":true,
			"name":"tmolding",
			"pbrMetallicRoughness":{
				"baseColorFactor":[
					0.800000011920929,
					0.800000011920929,
					0.800000011920929,
					1
				],
				"metallicFactor":0,
				"roughnessFactor":0.5
			}
		},
		{
			"doubleSided":true,
			"name":"noir",
			"pbrMetallicRoughness":{
				"baseColorFactor":[
					0.800000011920929,
					0.800000011920929,
					0.800000011920929,
					1
				],
				"metallicFactor":0,
				"roughnessFactor":0.5
			}
		},
		{
			"doubleSided":true,
			"name":"grille",
			"pbrMetallicRoughness":{
				"baseColorFactor":[
					0.800000011920929,
					0.800000011920929,
					0.800000011920929,
					1
				],
				"metallicFactor":0,
				"roughnessFactor":0.5
			}
		},
		{
			"doubleSided":true,
			"name":"panneau",
			"pbrMetallicRoughness":{
				"baseColorFactor":[
					0.800000011920929,
					0.800000011920929,
					0.800000011920929,
					1
				],
				"metallicFactor":0,
				"roughnessFactor":0.5
			}
		},
		{
			"doubleSided":true,
			"name":"marquee",
			"pbrMetallicRoughness":{
				"baseColorFactor":[
					0.800000011920929,
					0.800000011920929,
					0.800000011920929,
					1
				],
				"metallicFactor":0,
				"roughnessFactor":0.5
			}
		},
		{
			"doubleSided":true,
			"name":"monnayeur",
			"pbrMetallicRoughness":{
				"baseColorFactor":[
					0.800000011920929,
					0.800000011920929,
					0.800000011920929,
					1
				],
				"metallicFactor":0,
				"roughnessFactor":0.5
			}
		},
		{
			"doubleSided":true,
			"name":"bouton_a",
			"pbrMetallicRoughness":{
				"baseColorFactor":[
					0.800000011920929,
					0.800000011920929,
					0.800000011920929,
					1
				],
				"metallicFactor":0,
				"roughnessFactor":0.5
			}
		},
		{
			"doubleSided":true,
			"name":"bouton_b",
			"pbrMetallicRoughness":{
				"baseColorFactor":[
					0.800000011920929,
					0.800000011920929,
					0.800000011920929,
					1
				],
				"metallicFactor":0,
				"roughnessFactor":0.5
			}
		},
		{
			"doubleSided":true,
			"name":"manche_bleu",
			"pbrMetallicRoughness":{
				"baseColorFactor":[
					0.800000011920929,
					0.800000011920929,
					0.800000011920929,
					1
				],
				"metallicFactor":0,
				"roughnessFactor":0.5
			}
		},
		{
			"doubleSided":true,
			"name":"manche_rouge",
			"pbrMetallicRoughness":{
				"baseColorFactor":[
					0.800000011920929,
					0.800000011920929,
					0.800000011920929,
					1
				],
				"metallicFactor":0,
				"roughnessFactor":0.5
			}
		},
		{
			"doubleSided":true,
			"name":"chrome",
			"pbrMetallicRoughness":{
				"baseColorFactor":[
					0.800000011920929,
					0.800000011920929,
					0.800000011920929,
					1
				],
				"metallicFactor":0,
				"roughnessFactor":0.5
			}
		},
		{
			"doubleSided":true,
			"name":"insert",
			"pbrMetallicRoughness":{
				"baseColorFactor":[
					0.800000011920929,
					0.800000011920929,
					0.800000011920929,
					1
				],
				"metallicFactor":0,
				"roughnessFactor":0.5
			}
		}
	],
	"meshes":[
		{
			"name":"caisson",
			"primitives":[
				{
					"attributes":{
						"POSITION":0,
						"NORMAL":1,
						"TEXCOORD_0":2,
						"TANGENT":3
					},
					"indices":4,
					"material":0
				},
				{
					"attributes":{
						"POSITION":5,
						"NORMAL":6,
						"TEXCOORD_0":7,
						"TANGENT":8
					},
					"indices":9,
					"material":1
				},
				{
					"attributes":{
						"POSITION":10,
						"NORMAL":11,
						"TEXCOORD_0":12,
						"TANGENT":13
					},
					"indices":14,
					"material":2
				},
				{
					"attributes":{
						"POSITION":15,
						"NORMAL":16,
						"TEXCOORD_0":17,
						"TANGENT":18
					},
					"indices":19,
					"material":3
				},
				{
					"attributes":{
						"POSITION":20,
						"NORMAL":21,
						"TEXCOORD_0":22,
						"TANGENT":23
					},
					"indices":24,
					"material":4
				},
				{
					"attributes":{
						"POSITION":25,
						"NORMAL":26,
						"TEXCOORD_0":27,
						"TANGENT":28
					},
					"indices":29,
					"material":5
				},
				{
					"attributes":{
						"POSITION":30,
						"NORMAL":31,
						"TEXCOORD_0":32,
						"TANGENT":33
					},
					"indices":34,
					"material":6
				},
				{
					"attributes":{
						"POSITION":35,
						"NORMAL":36,
						"TEXCOORD_0":37,
						"TANGENT":38
					},
					"indices":39,
					"material":7
				},
				{
					"attributes":{
						"POSITION":40,
						"NORMAL":41,
						"TEXCOORD_0":42,
						"TANGENT":43
					},
					"indices":44,
					"material":8
				},
				{
					"attributes":{
						"POSITION":45,
						"NORMAL":46,
						"TEXCOORD_0":47,
						"TANGENT":48
					},
					"indices":49,
					"material":9
				},
				{
					"attributes":{
						"POSITION":50,
						"NORMAL":51,
						"TEXCOORD_0":52,
						"TANGENT":53
					},
					"indices":54,
					"material":10
				},
				{
					"attributes":{
						"POSITION":55,
						"NORMAL":56,
						"TEXCOORD_0":57,
						"TANGENT":58
					},
					"indices":59,
					"material":11
				},
				{
					"attributes":{
						"POSITION":60,
						"NORMAL":61,
						"TEXCOORD_0":62,
						"TANGENT":63
					},
					"indices":64,
					"material":12
				},
				{
					"attributes":{
						"POSITION":65,
						"NORMAL":66,
						"TEXCOORD_0":67,
						"TANGENT":68
					},
					"indices":69,
					"material":13
				}
			]
		}
	],
	"accessors":[
		{
			"bufferView":0,
			"componentType":5126,
			"count":80,
			"max":[
				0.359414279460907,
				1.8495893478393555,
				0.4338580369949341
			],
			"min":[
				-0.359414279460907,
				0.10000000149011612,
				-0.4399999976158142
			],
			"type":"VEC3"
		},
		{
			"bufferView":1,
			"componentType":5126,
			"count":80,
			"type":"VEC3"
		},
		{
			"bufferView":2,
			"componentType":5126,
			"count":80,
			"type":"VEC2"
		},
		{
			"bufferView":3,
			"componentType":5126,
			"count":80,
			"type":"VEC4"
		},
		{
			"bufferView":4,
			"componentType":5123,
			"count":252,
			"type":"SCALAR"
		},
		{
			"bufferView":5,
			"componentType":5126,
			"count":54,
			"max":[
				0.36000001430511475,
				1.8395808935165405,
				0.4240218698978424
			],
			"min":[
				-0.36000001430511475,
				0.10058578848838806,
				-0.43050000071525574
			],
			"type":"VEC3"
		},
		{
			"bufferView":6,
			"componentType":5126,
			"count":54,
			"type":"VEC3"
		},
		{
			"bufferView":7,
			"componentType":5126,
			"count":54,
			"type":"VEC2"
		},
		{
			"bufferView":8,
			"componentType":5126,
			"count":54,
			"type":"VEC4"
		},
		{
			"bufferView":9,
			"componentType":5123,
			"count":138,
			"type":"SCALAR"
		},
		{
			"bufferView":10,
			"componentType":5126,
			"count":384,
			"max":[
				0.36000001430511475,
				1.8495893478393555,
				0.4338580369949341
			],
			"min":[
				-0.36000001430511475,
				0.10058578848838806,
				-0.4399999976158142
			],
			"type":"VEC3"
		},
		{
			"bufferView":11,
			"componentType":5126,
			"count":384,
			"type":"VEC3"
		},
		{
			"bufferView":12,
			"componentType":5126,
			"count":384,
			"type":"VEC2"
		},
		{
			"bufferView":13,
			"componentType":5126,
			"count":384,
			"type":"VEC4"
		},
		{
			"bufferView":14,
			"componentType":5123,
			"count":1188,
			"type":"SCALAR"
		},
		{
			"bufferView":15,
			"componentType":5126,
			"count":596,
			"max":[
				0.3505000174045563,
				1.8494200706481934,
				0.3596176505088806
			],
			"min":[
				-0.3505000174045563,
				0.006000000052154064,
				-0.42500001192092896
			],
			"type":"VEC3"
		},
		{
			"bufferView":16,
			"componentType":5126,
			"count":596,
			"type":"VEC3"
		},
		{
			"bufferView":17,
			"componentType":5126,
			"count":596,
			"type":"VEC2"
		},
		{
			"bufferView":18,
			"componentType":5126,
			"count":596,
			"type":"VEC4"
		},
		{
			"bufferView":19,
			"componentType":5123,
			"count":1722,
			"type":"SCALAR"
		},
		{
			"bufferView":20,
			"componentType":5126,
			"count":320,
			"max":[
				0.23499999940395355,
				1.528830885887146,
				0.16881637275218964
			],
			"min":[
				-0.23499999940395355,
				1.4605134725570679,
				0.09110948443412781
			],
			"type":"VEC3"
		},
		{
			"bufferView":21,
			"componentType":5126,
			"count":320,
			"type":"VEC3"
		},
		{
			"bufferView":22,
			"componentType":5126,
			"count":320,
			"type":"VEC2"
		},
		{
			"bufferView":23,
			"componentType":5126,
			"count":320,
			"type":"VEC4"
		},
		{
			"bufferView":24,
			"componentType":5123,
			"count":768,
			"type":"SCALAR"
		},
		{
			"bufferView":25,
			"componentType":5126,
			"count":8,
			"max":[
				0.3505000174045563,
				1.0523875951766968,
				0.433369904756546
			],
			"min":[
				-0.3505000174045563,
				0.9715723991394043,
				0.18538588285446167
			],
			"type":"VEC3"
		},
		{
			"bufferView":26,
			"componentType":5126,
			"count":8,
			"type":"VEC3"
		},
		{
			"bufferView":27,
			"componentType":5126,
			"count":8,
			"type":"VEC2"
		},
		{
			"bufferView":28,
			"componentType":5126,
			"count":8,
			"type":"VEC4"
		},
		{
			"bufferView":29,
			"componentType":5123,
			"count":18,
			"type":"SCALAR"
		},
		{
			"bufferView":30,
			"componentType":5126,
			"count":120,
			"max":[
				0.3505000174045563,
				1.7798583507537842,
				0.3659999966621399
			],
			"min":[
				-0.3505000174045563,
				1.5905237197875977,
				0.3593848943710327
			],
			"type":"VEC3"
		},
		{
			"bufferView":31,
			"componentType":5126,
			"count":120,
			"type":"VEC3"
		},
		{
			"bufferView":32,
			"componentType":5126,
			"count":120,
			"type":"VEC2"
		},
		{
			"bufferView":33,
			"componentType":5126,
			"count":120,
			"type":"VEC4"
		},
		{
			"bufferView":34,
			"componentType":5123,
			"count":342,
			"type":"SCALAR"
		},
		{
			"bufferView":35,
			"componentType":5126,
			"count":288,
			"max":[
				0.125,
				0.6800000071525574,
				0.328000009059906
			],
			"min":[
				-0.125,
				0.12999999523162842,
				0.30000001192092896
			],
			"type":"VEC3"
		},
		{
			"bufferView":36,
			"componentType":5126,
			"count":288,
			"type":"VEC3"
		},
		{
			"bufferView":37,
			"componentType":5126,
			"count":288,
			"type":"VEC2"
		},
		{
			"bufferView":38,
			"componentType":5126,
			"count":288,
			"type":"VEC4"
		},
		{
			"bufferView":39,
			"componentType":5123,
			"count":972,
			"type":"SCALAR"
		},
		{
			"bufferView":40,
			"componentType":5126,
			"count":116,
			"max":[
				0.05956026166677475,
				1.0029606819152832,
				0.37743523716926575
			],
			"min":[
				0.03043973632156849,
				0.987984836101532,
				0.34919407963752747
			],
			"type":"VEC3"
		},
		{
			"bufferView":41,
			"componentType":5126,
			"count":116,
			"type":"VEC3"
		},
		{
			"bufferView":42,
			"componentType":5126,
			"count":116,
			"type":"VEC2"
		},
		{
			"bufferView":43,
			"componentType":5126,
			"count":116,
			"type":"VEC4"
		},
		{
			"bufferView":44,
			"componentType":5123,
			"count":420,
			"type":"SCALAR"
		},
		{
			"bufferView":45,
			"componentType":5126,
			"count":116,
			"max":[
				0.09956026822328568,
				1.0029606819152832,
				0.37743523716926575
			],
			"min":[
				0.07043973356485367,
				0.987984836101532,
				0.34919407963752747
			],
			"type":"VEC3"
		},
		{
			"bufferView":46,
			"componentType":5126,
			"count":116,
			"type":"VEC3"
		},
		{
			"bufferView":47,
			"componentType":5126,
			"count":116,
			"type":"VEC2"
		},
		{
			"bufferView":48,
			"componentType":5126,
			"count":116,
			"type":"VEC4"
		},
		{
			"bufferView":49,
			"componentType":5123,
			"count":420,
			"type":"SCALAR"
		},
		{
			"bufferView":50,
			"componentType":5126,
			"count":205,
			"max":[
				-0.06400000303983688,
				1.0719997882843018,
				0.38359999656677246
			],
			"min":[
				-0.10599999874830246,
				1.0329397916793823,
				0.3416000008583069
			],
			"type":"VEC3"
		},
		{
			"bufferView":51,
			"componentType":5126,
			"count":205,
			"type":"VEC3"
		},
		{
			"bufferView":52,
			"componentType":5126,
			"count":205,
			"type":"VEC2"
		},
		{
			"bufferView":53,
			"componentType":5126,
			"count":205,
			"type":"VEC4"
		},
		{
			"bufferView":54,
			"componentType":5123,
			"count":432,
			"type":"SCALAR"
		},
		{
			"bufferView":55,
			"componentType":5126,
			"count":121,
			"max":[
				0.011645319871604443,
				1.022040605545044,
				0.31293585896492004
			],
			"min":[
				-0.011645319871604443,
				1.0087900161743164,
				0.2901279926300049
			],
			"type":"VEC3"
		},
		{
			"bufferView":56,
			"componentType":5126,
			"count":121,
			"type":"VEC3"
		},
		{
			"bufferView":57,
			"componentType":5126,
			"count":121,
			"type":"VEC2"
		},
		{
			"bufferView":58,
			"componentType":5126,
			"count":121,
			"type":"VEC4"
		},
		{
			"bufferView":59,
			"componentType":5123,
			"count":420,
			"type":"SCALAR"
		},
		{
			"bufferView":60,
			"componentType":5126,
			"count":668,
			"max":[
				0.09463797509670258,
				1.0328006744384766,
				0.3852608799934387
			],
			"min":[
				-0.10820803046226501,
				0.19834260642528534,
				0.3240000009536743
			],
			"type":"VEC3"
		},
		{
			"bufferView":61,
			"componentType":5126,
			"count":668,
			"type":"VEC3"
		},
		{
			"bufferView":62,
			"componentType":5126,
			"count":668,
			"type":"VEC2"
		},
		{
			"bufferView":63,
			"componentType":5126,
			"count":668,
			"type":"VEC4"
		},
		{
			"bufferView":64,
			"componentType":5123,
			"count":2322,
			"type":"SCALAR"
		},
		{
			"bufferView":65,
			"componentType":5126,
			"count":192,
			"max":[
				0.061000000685453415,
				0.6399999856948853,
				0.3330000042915344
			],
			"min":[
				-0.04899999871850014,
				0.5920000076293945,
				0.3269999921321869
			],
			"type":"VEC3"
		},
		{
			"bufferView":66,
			"componentType":5126,
			"count":192,
			"type":"VEC3"
		},
		{
			"bufferView":67,
			"componentType":5126,
			"count":192,
			"type":"VEC2"
		},
		{
			"bufferView":68,
			"componentType":5126,
			"count":192,
			"type":"VEC4"
		},
		{
			"bufferView":69,
			"componentType":5123,
			"count":648,
			"type":"SCALAR"
		}
	],
	"bufferViews":[
		{
			"buffer":0,
			"byteLength":960,
			"byteOffset":0,
			"target":34962
		},
		{
			"buffer":0,
			"byteLength":960,
			"byteOffset":960,
			"target":34962
		},
		{
			"buffer":0,
			"byteLength":640,
			"byteOffset":1920,
			"target":34962
		},
		{
			"buffer":0,
			"byteLength":1280,
			"byteOffset":2560,
			"target":34962
		},
		{
			"buffer":0,
			"byteLength":504,
			"byteOffset":3840,
			"target":34963
		},
		{
			"buffer":0,
			"byteLength":648,
			"byteOffset":4344,
			"target":34962
		},
		{
			"buffer":0,
			"byteLength":648,
			"byteOffset":4992,
			"target":34962
		},
		{
			"buffer":0,
			"byteLength":432,
			"byteOffset":5640,
			"target":34962
		},
		{
			"buffer":0,
			"byteLength":864,
			"byteOffset":6072,
			"target":34962
		},
		{
			"buffer":0,
			"byteLength":276,
			"byteOffset":6936,
			"target":34963
		},
		{
			"buffer":0,
			"byteLength":4608,
			"byteOffset":7212,
			"target":34962
		},
		{
			"buffer":0,
			"byteLength":4608,
			"byteOffset":11820,
			"target":34962
		},
		{
			"buffer":0,
			"byteLength":3072,
			"byteOffset":16428,
			"target":34962
		},
		{
			"buffer":0,
			"byteLength":6144,
			"byteOffset":19500,
			"target":34962
		},
		{
			"buffer":0,
			"byteLength":2376,
			"byteOffset":25644,
			"target":34963
		},
		{
			"buffer":0,
			"byteLength":7152,
			"byteOffset":28020,
			"target":34962
		},
		{
			"buffer":0,
			"byteLength":7152,
			"byteOffset":35172,
			"target":34962
		},
		{
			"buffer":0,
			"byteLength":4768,
			"byteOffset":42324,
			"target":34962
		},
		{
			"buffer":0,
			"byteLength":9536,
			"byteOffset":47092,
			"target":34962
		},
		{
			"buffer":0,
			"byteLength":3444,
			"byteOffset":56628,
			"target":34963
		},
		{
			"buffer":0,
			"byteLength":3840,
			"byteOffset":60072,
			"target":34962
		},
		{
			"buffer":0,
			"byteLength":3840,
			"byteOffset":63912,
			"target":34962
		},
		{
			"buffer":0,
			"byteLength":2560,
			"byteOffset":67752,
			"target":34962
		},
		{
			"buffer":0,
			"byteLength":5120,
			"byteOffset":70312,
			"target":34962
		},
		{
			"buffer":0,
			"byteLength":1536,
			"byteOffset":75432,
			"target":34963
		},
		{
			"buffer":0,
			"byteLength":96,
			"byteOffset":76968,
			"target":34962
		},
		{
			"buffer":0,
			"byteLength":96,
			"byteOffset":77064,
			"target":34962
		},
		{
			"buffer":0,
			"byteLength":64,
			"byteOffset":77160,
			"target":34962
		},
		{
			"buffer":0,
			"byteLength":128,
			"byteOffset":77224,
			"target":34962
		},
		{
			"buffer":0,
			"byteLength":36,
			"byteOffset":77352,
			"target":34963
		},
		{
			"buffer":0,
			"byteLength":1440,
			"byteOffset":77388,
			"target":34962
		},
		{
			"buffer":0,
			"byteLength":1440,
			"byteOffset":78828,
			"target":34962
		},
		{
			"buffer":0,
			"byteLength":960,
			"byteOffset":80268,
			"target":34962
		},
		{
			"buffer":0,
			"byteLength":1920,
			"byteOffset":81228,
			"target":34962
		},
		{
			"buffer":0,
			"byteLength":684,
			"byteOffset":83148,
			"target":34963
		},
		{
			"buffer":0,
			"byteLength":3456,
			"byteOffset":83832,
			"target":34962
		},
		{
			"buffer":0,
			"byteLength":3456,
			"byteOffset":87288,
			"target":34962
		},
		{
			"buffer":0,
			"byteLength":2304,
			"byteOffset":90744,
			"target":34962
		},
		{
			"buffer":0,
			"byteLength":4608,
			"byteOffset":93048,
			"target":34962
		},
		{
			"buffer":0,
			"byteLength":1944,
			"byteOffset":97656,
			"target":34963
		},
		{
			"buffer":0,
			"byteLength":1392,
			"byteOffset":99600,
			"target":34962
		},
		{
			"buffer":0,
			"byteLength":1392,
			"byteOffset":100992,
			"target":34962
		},
		{
			"buffer":0,
			"byteLength":928,
			"byteOffset":102384,
			"target":34962
		},
		{
			"buffer":0,
			"byteLength":1856,
			"byteOffset":103312,
			"target":34962
		},
		{
			"buffer":0,
			"byteLength":840,
			"byteOffset":105168,
			"target":34963
		},
		{
			"buffer":0,
			"byteLength":1392,
			"byteOffset":106008,
			"target":34962
		},
		{
			"buffer":0,
			"byteLength":1392,
			"byteOffset":107400,
			"target":34962
		},
		{
			"buffer":0,
			"byteLength":928,
			"byteOffset":108792,
			"target":34962
		},
		{
			"buffer":0,
			"byteLength":1856,
			"byteOffset":109720,
			"target":34962
		},
		{
			"buffer":0,
			"byteLength":840,
			"byteOffset":111576,
			"target":34963
		},
		{
			"buffer":0,
			"byteLength":2460,
			"byteOffset":112416,
			"target":34962
		},
		{
			"buffer":0,
			"byteLength":2460,
			"byteOffset":114876,
			"target":34962
		},
		{
			"buffer":0,
			"byteLength":1640,
			"byteOffset":117336,
			"target":34962
		},
		{
			"buffer":0,
			"byteLength":3280,
			"byteOffset":118976,
			"target":34962
		},
		{
			"buffer":0,
			"byteLength":864,
			"byteOffset":122256,
			"target":34963
		},
		{
			"buffer":0,
			"byteLength":1452,
			"byteOffset":123120,
			"target":34962
		},
		{
			"buffer":0,
			"byteLength":1452,
			"byteOffset":124572,
			"target":34962
		},
		{
			"buffer":0,
			"byteLength":968,
			"byteOffset":126024,
			"target":34962
		},
		{
			"buffer":0,
			"byteLength":1936,
			"byteOffset":126992,
			"target":34962
		},
		{
			"buffer":0,
			"byteLength":840,
			"byteOffset":128928,
			"target":34963
		},
		{
			"buffer":0,
			"byteLength":8016,
			"byteOffset":129768,
			"target":34962
		},
		{
			"buffer":0,
			"byteLength":8016,
			"byteOffset":137784,
			"target":34962
		},
		{
			"buffer":0,
			"byteLength":5344,
			"byteOffset":145800,
			"target":34962
		},
		{
			"buffer":0,
			"byteLength":10688,
			"byteOffset":151144,
			"target":34962
		},
		{
			"buffer":0,
			"byteLength":4644,
			"byteOffset":161832,
			"target":34963
		},
		{
			"buffer":0,
			"byteLength":2304,
			"byteOffset":166476,
			"target":34962
		},
		{
			"buffer":0,
			"byteLength":2304,
			"byteOffset":168780,
			"target":34962
		},
		{
			"buffer":0,
			"byteLength":1536,
			"byteOffset":171084,
			"target":34962
		},
		{
			"buffer":0,
			"byteLength":3072,
			"byteOffset":172620,
			"target":34962
		},
		{
			"buffer":0,
			"byteLength":1296,
			"byteOffset":175692,
			"target":34963
		}
	],
	"buffers":[
		{
			"byteLength":176988,
			"uri":"borne.bin"
		}
	]
}
