{
	"asset":{
		"generator":"Khronos glTF Blender I/O v5.2.40",
		"version":"2.0"
	},
	"scene":0,
	"scenes":[
		{
			"name":"Scene",
			"nodes":[
				0
			]
		}
	],
	"nodes":[
		{
			"mesh":0,
			"name":"billard"
		}
	],
	"materials":[
		{
			"doubleSided":true,
			"name":"bois",
			"pbrMetallicRoughness":{
				"baseColorFactor":[
					0.800000011920929,
					0.800000011920929,
					0.800000011920929,
					1
				],
				"metallicFactor":0,
				"roughnessFactor":0.5
			}
		},
		{
			"doubleSided":true,
			"name":"drap",
			"pbrMetallicRoughness":{
				"baseColorFactor":[
					0.800000011920929,
					0.800000011920929,
					0.800000011920929,
					1
				],
				"metallicFactor":0,
				"roughnessFactor":0.5
			}
		},
		{
			"doubleSided":true,
			"name":"poche",
			"pbrMetallicRoughness":{
				"baseColorFactor":[
					0.800000011920929,
					0.800000011920929,
					0.800000011920929,
					1
				],
				"metallicFactor":0,
				"roughnessFactor":0.5
			}
		},
		{
			"doubleSided":true,
			"name":"metal",
			"pbrMetallicRoughness":{
				"baseColorFactor":[
					0.800000011920929,
					0.800000011920929,
					0.800000011920929,
					1
				],
				"metallicFactor":0,
				"roughnessFactor":0.5
			}
		},
		{
			"doubleSided":true,
			"name":"repere",
			"pbrMetallicRoughness":{
				"baseColorFactor":[
					0.800000011920929,
					0.800000011920929,
					0.800000011920929,
					1
				],
				"metallicFactor":0,
				"roughnessFactor":0.5
			}
		}
	],
	"meshes":[
		{
			"name":"pied_-1_-1",
			"primitives":[
				{
					"attributes":{
						"POSITION":0,
						"NORMAL":1,
						"TEXCOORD_0":2
					},
					"indices":3,
					"material":0
				},
				{
					"attributes":{
						"POSITION":4,
						"NORMAL":5,
						"TEXCOORD_0":6
					},
					"indices":7,
					"material":1
				},
				{
					"attributes":{
						"POSITION":8,
						"NORMAL":9,
						"TEXCOORD_0":10
					},
					"indices":11,
					"material":2
				},
				{
					"attributes":{
						"POSITION":12,
						"NORMAL":13,
						"TEXCOORD_0":14
					},
					"indices":15,
					"material":3
				},
				{
					"attributes":{
						"POSITION":16,
						"NORMAL":17,
						"TEXCOORD_0":18
					},
					"indices":19,
					"material":4
				}
			]
		}
	],
	"accessors":[
		{
			"bufferView":0,
			"componentType":5126,
			"count":770,
			"max":[
				1.1799999475479126,
				0.8460000157356262,
				0.6800000071525574
			],
			"min":[
				-1.1799999475479126,
				0,
				-0.6800000071525574
			],
			"type":"VEC3"
		},
		{
			"bufferView":1,
			"componentType":5126,
			"count":770,
			"type":"VEC3"
		},
		{
			"bufferView":2,
			"componentType":5126,
			"count":770,
			"type":"VEC2"
		},
		{
			"bufferView":3,
			"componentType":5123,
			"count":1584,
			"type":"SCALAR"
		},
		{
			"bufferView":4,
			"componentType":5126,
			"count":514,
			"max":[
				1.1779999732971191,
				0.8309248685836792,
				0.6779999732971191
			],
			"min":[
				-1.1779999732971191,
				0.7749999761581421,
				-0.6779999732971191
			],
			"type":"VEC3"
		},
		{
			"bufferView":5,
			"componentType":5126,
			"count":514,
			"type":"VEC3"
		},
		{
			"bufferView":6,
			"componentType":5126,
			"count":514,
			"type":"VEC2"
		},
		{
			"bufferView":7,
			"componentType":5123,
			"count":1068,
			"type":"SCALAR"
		},
		{
			"bufferView":8,
			"componentType":5126,
			"count":384,
			"max":[
				1.2170000076293945,
				0.8399999737739563,
				0.7449913620948792
			],
			"min":[
				-1.2170000076293945,
				0.7099999785423279,
				-0.7449913620948792
			],
			"type":"VEC3"
		},
		{
			"bufferView":9,
			"componentType":5126,
			"count":384,
			"type":"VEC3"
		},
		{
			"bufferView":10,
			"componentType":5126,
			"count":384,
			"type":"VEC2"
		},
		{
			"bufferView":11,
			"componentType":5123,
			"count":1224,
			"type":"SCALAR"
		},
		{
			"bufferView":12,
			"componentType":5126,
			"count":1888,
			"max":[
				1.2330000400543213,
				0.8479999899864197,
				0.7639999985694885
			],
			"min":[
				-1.2330000400543213,
				0.7864800095558167,
				-0.7639999985694885
			],
			"type":"VEC3"
		},
		{
			"bufferView":13,
			"componentType":5126,
			"count":1888,
			"type":"VEC3"
		},
		{
			"bufferView":14,
			"componentType":5126,
			"count":1888,
			"type":"VEC2"
		},
		{
			"bufferView":15,
			"componentType":5123,
			"count":5136,
			"type":"SCALAR"
		},
		{
			"bufferView":16,
			"componentType":5126,
			"count":640,
			"max":[
				1.125,
				0.8475000262260437,
				0.625
			],
			"min":[
				-1.125,
				0.8454999923706055,
				-0.625
			],
			"type":"VEC3"
		},
		{
			"bufferView":17,
			"componentType":5126,
			"count":640,
			"type":"VEC3"
		},
		{
			"bufferView":18,
			"componentType":5126,
			"count":640,
			"type":"VEC2"
		},
		{
			"bufferView":19,
			"componentType":5123,
			"count":1344,
			"type":"SCALAR"
		}
	],
	"bufferViews":[
		{
			"buffer":0,
			"byteLength":9240,
			"byteOffset":0,
			"target":34962
		},
		{
			"buffer":0,
			"byteLength":9240,
			"byteOffset":9240,
			"target":34962
		},
		{
			"buffer":0,
			"byteLength":6160,
			"byteOffset":18480,
			"target":34962
		},
		{
			"buffer":0,
			"byteLength":3168,
			"byteOffset":24640,
			"target":34963
		},
		{
			"buffer":0,
			"byteLength":6168,
			"byteOffset":27808,
			"target":34962
		},
		{
			"buffer":0,
			"byteLength":6168,
			"byteOffset":33976,
			"target":34962
		},
		{
			"buffer":0,
			"byteLength":4112,
			"byteOffset":40144,
			"target":34962
		},
		{
			"buffer":0,
			"byteLength":2136,
			"byteOffset":44256,
			"target":34963
		},
		{
			"buffer":0,
			"byteLength":4608,
			"byteOffset":46392,
			"target":34962
		},
		{
			"buffer":0,
			"byteLength":4608,
			"byteOffset":51000,
			"target":34962
		},
		{
			"buffer":0,
			"byteLength":3072,
			"byteOffset":55608,
			"target":34962
		},
		{
			"buffer":0,
			"byteLength":2448,
			"byteOffset":58680,
			"target":34963
		},
		{
			"buffer":0,
			"byteLength":22656,
			"byteOffset":61128,
			"target":34962
		},
		{
			"buffer":0,
			"byteLength":22656,
			"byteOffset":83784,
			"target":34962
		},
		{
			"buffer":0,
			"byteLength":15104,
			"byteOffset":106440,
			"target":34962
		},
		{
			"buffer":0,
			"byteLength":10272,
			"byteOffset":121544,
			"target":34963
		},
		{
			"buffer":0,
			"byteLength":7680,
			"byteOffset":131816,
			"target":34962
		},
		{
			"buffer":0,
			"byteLength":7680,
			"byteOffset":139496,
			"target":34962
		},
		{
			"buffer":0,
			"byteLength":5120,
			"byteOffset":147176,
			"target":34962
		},
		{
			"buffer":0,
			"byteLength":2688,
			"byteOffset":152296,
			"target":34963
		}
	],
	"buffers":[
		{
			"byteLength":154984,
			"uri":"billard.bin"
		}
	]
}
