{
	"asset":{
		"generator":"Khronos glTF Blender I/O v5.2.40",
		"version":"2.0"
	},
	"scene":0,
	"scenes":[
		{
			"name":"Scene",
			"nodes":[
				0
			]
		}
	],
	"nodes":[
		{
			"mesh":0,
			"name":"potted_plant_01_stem"
		}
	],
	"materials":[
		{
			"doubleSided":true,
			"name":"import",
			"pbrMetallicRoughness":{
				"baseColorFactor":[
					0.800000011920929,
					0.800000011920929,
					0.800000011920929,
					1
				],
				"metallicFactor":0,
				"roughnessFactor":0.5
			}
		}
	],
	"meshes":[
		{
			"name":"potted_plant_01_base_low",
			"primitives":[
				{
					"attributes":{
						"POSITION":0,
						"NORMAL":1,
						"TEXCOORD_0":2
					},
					"indices":3,
					"material":0
				}
			]
		}
	],
	"accessors":[
		{
			"bufferView":0,
			"componentType":5126,
			"count":7529,
			"max":[
				0.240462988615036,
				1.3342814445495605,
				0.261563777923584
			],
			"min":[
				-0.33776894211769104,
				-0.013706624507904053,
				-0.3644833564758301
			],
			"type":"VEC3"
		},
		{
			"bufferView":1,
			"componentType":5126,
			"count":7529,
			"type":"VEC3"
		},
		{
			"bufferView":2,
			"componentType":5126,
			"count":7529,
			"type":"VEC2"
		},
		{
			"bufferView":3,
			"componentType":5123,
			"count":12537,
			"type":"SCALAR"
		}
	],
	"bufferViews":[
		{
			"buffer":0,
			"byteLength":90348,
			"byteOffset":0,
			"target":34962
		},
		{
			"buffer":0,
			"byteLength":90348,
			"byteOffset":90348,
			"target":34962
		},
		{
			"buffer":0,
			"byteLength":60232,
			"byteOffset":180696,
			"target":34962
		},
		{
			"buffer":0,
			"byteLength":25074,
			"byteOffset":240928,
			"target":34963
		}
	],
	"buffers":[
		{
			"byteLength":266004,
			"uri":"potted_plant_01.bin"
		}
	]
}
