{
	"asset":{
		"generator":"Khronos glTF Blender I/O v5.2.40",
		"version":"2.0"
	},
	"scene":0,
	"scenes":[
		{
			"name":"Scene",
			"nodes":[
				0
			]
		}
	],
	"nodes":[
		{
			"mesh":0,
			"name":"metal_trash_can_lid",
			"translation":[
				0.12573447823524475,
				0.2858511209487915,
				-7.379671842500102e-06
			]
		}
	],
	"materials":[
		{
			"doubleSided":true,
			"name":"import",
			"pbrMetallicRoughness":{
				"baseColorFactor":[
					0.800000011920929,
					0.800000011920929,
					0.800000011920929,
					1
				],
				"metallicFactor":0,
				"roughnessFactor":0.5
			}
		}
	],
	"meshes":[
		{
			"name":"Cylinder.002",
			"primitives":[
				{
					"attributes":{
						"POSITION":0,
						"NORMAL":1,
						"TEXCOORD_0":2
					},
					"indices":3,
					"material":0
				}
			]
		}
	],
	"accessors":[
		{
			"bufferView":0,
			"componentType":5126,
			"count":1194,
			"max":[
				0.4309772253036499,
				0.38463613390922546,
				0.17260107398033142
			],
			"min":[
				-0.047371916472911835,
				-0.1771833449602127,
				-0.17425303161144257
			],
			"type":"VEC3"
		},
		{
			"bufferView":1,
			"componentType":5126,
			"count":1194,
			"type":"VEC3"
		},
		{
			"bufferView":2,
			"componentType":5126,
			"count":1194,
			"type":"VEC2"
		},
		{
			"bufferView":3,
			"componentType":5123,
			"count":3300,
			"type":"SCALAR"
		}
	],
	"bufferViews":[
		{
			"buffer":0,
			"byteLength":14328,
			"byteOffset":0,
			"target":34962
		},
		{
			"buffer":0,
			"byteLength":14328,
			"byteOffset":14328,
			"target":34962
		},
		{
			"buffer":0,
			"byteLength":9552,
			"byteOffset":28656,
			"target":34962
		},
		{
			"buffer":0,
			"byteLength":6600,
			"byteOffset":38208,
			"target":34963
		}
	],
	"buffers":[
		{
			"byteLength":44808,
			"uri":"metal_trash_can.bin"
		}
	]
}
